<svg width="48" height="61" viewBox="0 0 48 61" fill="none" xmlns="http://www.w3.org/2000/svg">
<path d="M15.7597 0C16.6339 0.0694077 16.5888 1.08016 16.733 1.69239C17.7696 6.09055 20.1451 11.1773 22.6216 15.0704C23.4122 16.3128 23.0914 16.2313 24.5057 16.7139C25.445 15.5864 27.0951 13.196 28.0713 12.4093C30.7539 10.2473 34.7513 11.8337 35.5459 14.954C35.6615 15.4085 35.6865 15.8799 35.8293 16.3289C36.2136 16.5886 37.2139 17.2212 37.453 17.5388C37.7789 17.9715 37.4538 18.4904 36.8783 18.479C35.7205 18.4561 34.5475 17.4978 33.4021 18.1411C32.0289 18.9123 31.6334 22.3339 31.2507 23.7454C29.8245 29.0057 24.5326 32.1411 18.7468 31.4532C18.3999 31.412 18.0484 31.3813 17.7089 31.302C17.0319 32.6795 15.4891 35.8246 14.5382 37.0318C13.661 38.1458 11.5455 38.3587 10.793 37.0285C10.5214 36.7208 10.4437 36.2488 10.2346 36.0522C9.29674 35.1703 7.51943 35.888 7.57523 33.1711C7.22415 32.9851 6.84538 32.833 6.53277 32.5921C5.55601 31.8389 5.33107 30.4515 6.19164 29.5517C6.97445 28.733 8.31045 28.6917 9.39493 28.515C10.648 28.3109 11.9205 28.0635 13.1916 27.9867C14.0244 26.8764 14.6687 25.5516 15.0239 24.2429C13.2314 24.4967 11.4642 24.4114 9.89377 23.4741C9.54933 23.2684 9.2893 22.9738 8.95448 22.7668C8.63752 22.5709 8.24289 22.4815 7.91257 22.2934C6.60828 21.5513 5.99879 20.6463 5.657 19.3268C4.00281 18.2829 2.92975 16.8295 2.93745 14.911C1.46632 13.221 0.953009 11.9793 1.26935 9.74245C0.289445 7.62309 0.0362099 6.15518 0.621764 3.82241C1.02377 2.22083 1.37907 2.35755 2.52648 3.25795C4.99961 5.19857 7.66547 7.12714 10.2637 8.91109C11.1201 9.49919 11.9768 10.0978 12.8721 10.6348C12.8412 10.3391 12.7465 10.037 12.679 9.7459C11.9885 6.76829 12.8227 3.84773 14.5214 1.28132C14.8034 0.855287 15.19 0.126949 15.7597 0ZM2.4267 11.1729C2.89906 13.9114 4.96546 15.366 7.80891 15.8313C8.17612 15.8914 8.64019 15.8978 8.97702 16.0388C9.51909 16.2656 9.35819 17.1064 8.76038 17.1515C7.67623 17.2337 5.29197 16.3706 4.35052 15.9409C5.02573 18.1353 7.59201 19.2011 9.90994 19.0745C10.4133 19.047 11.3711 18.803 11.5826 19.4301C12.0547 20.8305 8.25843 20.2049 7.27819 19.9419C8.07271 22.2458 11.9116 21.9496 13.807 21.044C14.092 20.9078 14.3775 20.6942 14.6881 20.6188C15.384 20.4503 15.6259 21.0411 15.4561 21.5408C14.2444 22.5515 12.8198 22.5347 11.5103 22.9552C14.1184 23.5366 16.5351 22.8158 18.6058 21.3474C18.8773 21.1547 19.1497 20.8699 19.4607 20.7422C19.9605 20.5368 20.4999 21.0142 20.324 21.4924C20.114 22.0643 17.4316 23.6395 16.5113 23.7699C16.073 25.4797 15.4281 26.8625 14.4445 28.3879C14.0905 28.9201 12.8716 29.9982 13.884 30.5207C14.4343 30.8048 15.5799 30.4031 16.1756 30.2778C17.1902 30.0639 18.1602 30.2241 19.1806 30.3144C23.1469 30.6652 27.1529 28.9095 29.0435 25.6174C29.839 24.2319 30.0346 23.0897 30.3671 21.6055C30.8696 19.3631 31.5662 16.735 34.5069 16.6742C34.2834 14.6166 33.3617 12.4164 30.6656 12.663C28.8538 12.8286 27.8773 14.5656 26.9401 15.799C26.3152 16.6214 23.5742 20.0736 22.4381 20.1877C22.0812 20.2237 21.7684 19.928 21.7404 19.6129C21.699 19.1418 23.1272 18.2966 23.5732 17.7996C20.6069 16.8125 16.7455 14.3837 14.0705 12.7545C13.2937 12.2813 12.4903 11.8455 11.7148 11.3707C9.11572 9.77973 6.65659 7.95555 4.23609 6.14362C3.43841 5.54644 2.6611 4.88635 1.81532 4.35027C0.989425 7.69329 2.85563 10.8686 6.1831 12.2753C6.5068 12.4123 7.05452 12.5536 7.30838 12.7557C7.6143 12.9994 7.54752 13.5305 7.19684 13.7121C6.17462 14.2414 3.07141 11.7954 2.4267 11.1729ZM12.9488 31.3583C12.2308 31.6493 11.1335 32.0856 10.4686 32.4543C10.3358 31.915 10.1299 31.6155 9.66286 31.2697C10.5682 31.0558 11.4804 30.7078 12.3035 30.3018C12.2395 30.058 12.2733 29.2906 12.2694 29.2832C11.2004 29.4168 8.51682 29.7544 7.54077 30.1078C6.68355 30.4181 6.80001 31.2935 7.45922 31.7253C8.07478 32.1283 8.69493 32.2303 8.85353 33.0272C8.94559 33.4897 8.72152 33.9741 9.21725 34.305C9.80015 34.694 10.5214 34.6259 11.134 35.1952C11.7451 35.7628 11.7075 36.9249 12.8422 36.745C13.6993 36.609 15.005 33.6201 15.4381 32.8662C15.544 32.667 16.1797 31.6014 16.1514 31.4703C15.807 31.4837 15.1904 32.0893 14.9626 32.3179L13.6618 33.6445C13.3972 33.9174 13.1132 34.187 12.8789 34.4829C12.6634 34.1072 12.359 33.826 11.9921 33.5708C12.3958 33.0586 13.3025 32.2097 13.8021 31.7577C13.4834 31.6567 13.2258 31.5339 12.9488 31.3583ZM21.3282 15.4907C18.9901 11.5393 17.1011 7.7245 15.8456 3.34793C15.7769 3.1077 15.6403 2.28531 15.4772 2.14449C13.3916 5.38116 13.3809 8.09041 14.566 11.5522C14.8883 11.8119 15.3176 11.9927 15.6739 12.2163C17.2124 13.1823 19.1237 14.3868 20.7818 15.1806C20.9635 15.2844 21.1446 15.3897 21.3282 15.4907Z" fill="#0D2E4C"/>
<path d="M31.3104 14.4151C31.5007 14.4092 31.684 14.4819 31.8104 14.6132C31.9366 14.7447 31.9925 14.9211 31.963 15.0942C31.917 15.3617 31.6787 15.5653 31.3856 15.5875C31.1549 15.6048 30.932 15.5056 30.8031 15.3283C30.6741 15.1511 30.6597 14.9236 30.765 14.7339C30.8703 14.5443 31.0791 14.4222 31.3104 14.4151Z" fill="#0D2E4C"/>
<path d="M35.4155 28.0017C35.7426 27.9865 35.919 28.072 36.0886 28.3093C37.1442 29.7861 37.1305 31.5436 36.5922 33.1633C38.0298 32.9547 37.5861 34.9215 37.456 35.5616C40.6696 34.5334 44.191 31.9982 45.6301 29.4722C45.7938 29.1847 45.8712 28.8253 46.2217 28.6492C47.1456 28.6053 47.0717 29.3868 47.1487 29.9644C47.4064 31.8942 46.8576 33.1234 45.948 34.7991C46.5821 34.5202 47.0004 34.6739 47.0448 35.2612C47.1366 36.4809 46.2615 37.6575 45.3003 38.5393C45.8239 38.7435 45.7026 39.2433 45.6116 39.637C45.3529 40.7566 44.4429 41.5858 43.3113 42.2078C44.0312 43.3294 41.6804 44.8073 40.5822 45.1808C41.4186 45.0276 41.78 45.3043 41.2725 45.9554C40.5709 46.8557 39.0007 47.6289 37.7459 47.861C38.3111 48.023 38.1474 48.3672 37.8281 48.6884C36.9232 49.5988 35.6641 49.9015 34.2887 50.0173C34.6474 52.4062 36.8605 53.3854 39.2602 54.3436C40.483 54.8319 41.7187 55.2813 42.9555 55.742C44.38 56.2728 41.0212 57.0417 40.5961 57.4502C40.33 57.7063 40.0651 58.195 39.8615 58.5017C39.5003 59.0493 38.442 58.8608 37.7459 58.8582C37.3821 59.1804 36.5309 60.3486 36.1538 60.4906C35.5589 60.7143 34.7839 58.8925 34.5692 58.534C33.779 57.2141 32.9867 55.8925 32.2253 54.5616C31.4425 54.5639 30.6617 54.5735 29.8826 54.501C22.8787 53.8509 19.1446 49.8659 18.5525 44.489C18.3931 43.042 18.5608 42.8081 17.4373 41.662C16.6386 41.7933 15.3856 41.9018 14.5609 41.947C14.2624 41.9634 13.9992 41.8171 14 41.5592C14.0011 41.1875 15.4341 40.2926 15.7213 39.8624C15.8501 39.6693 15.8969 39.4441 15.9721 39.235C16.6113 37.456 18.7869 36.3649 21.0454 36.983C22.7729 37.4556 23.3139 38.9834 24.4699 39.9906C25.2188 37.8573 27.4106 37.001 29.3319 35.6703C31.9506 33.8566 33.8841 32.0656 34.7984 29.3351C34.9328 28.9344 34.8916 28.2116 35.4155 28.0017ZM25.1501 43.7529C25.3111 43.3155 25.8057 42.7444 26.0694 42.288C24.6998 41.5415 23.5206 40.4826 22.6508 39.3459C22.4155 39.0381 22.2025 38.7087 21.9161 38.43C20.6758 37.2232 18.4043 37.4027 17.3591 38.6807C17.055 39.0524 16.9367 39.4604 16.811 39.8881C17.5895 40.5698 18.7878 41.6026 19.1809 42.4028C19.4852 43.0223 19.4367 43.7047 19.5209 44.359C20.2783 50.249 24.4902 53.918 31.9791 53.7647C33.1586 53.7405 32.8054 53.7779 33.3113 54.608C34.0622 55.8404 35.2522 58.3061 36.166 59.352C36.3236 59.0125 36.6137 58.7352 36.8638 58.4383C36.5919 58.095 34.5591 55.7295 34.6044 55.4664C34.7874 54.4024 36.6995 57.4408 37.3481 58.0964C37.9243 58.1136 38.5047 58.056 39.0773 58.0964C39.2826 57.724 39.5335 57.3767 39.7533 57.0113C39.2905 56.7856 38.8382 56.5504 38.3982 56.2967L37.0242 55.5722C36.8034 55.4561 36.1609 55.2063 36.0913 54.98C35.8657 54.2453 37.336 55.1471 37.4212 55.1912C38.347 55.671 39.2596 56.1803 40.177 56.6552C40.6426 56.5139 41.1255 56.3073 41.5532 56.1011C38.0235 54.5859 33.8536 53.7813 33.3247 50.0173C32.3164 49.8244 29.6964 49.2799 29.2451 48.6927C29.0224 48.403 29.3375 48.0212 29.7508 48.1259C30.1289 48.2218 30.4718 48.4476 30.8353 48.5811C32.6613 49.2522 34.6741 49.6364 36.4834 48.6195C35.2241 48.6055 32.6384 47.6253 33.171 47.2576C33.4626 47.0562 34.184 47.3262 34.5325 47.3488C36.5547 47.4806 38.4584 47.0329 40.0313 46.006C39.2553 46.0273 36.9466 45.9991 36.5252 45.6252C36.1068 45.2543 37.3997 45.21 37.5591 45.1819C39.2109 44.8907 41.4366 44.1881 42.32 42.9606C41.3496 43.437 40.3111 43.5847 39.1914 43.5255C38.9976 43.5152 37.9241 43.4941 38.0618 43.1809C38.1677 42.9405 39.0593 42.8936 39.3241 42.8291C41.3408 42.3382 44.0408 41.3855 44.6246 39.5563C43.457 40.118 42.362 40.4866 40.9997 40.5966C40.7946 40.6132 39.7847 40.723 39.9803 40.328C40.1428 40 45.0255 39.2707 46.0808 35.751C45.7731 35.9103 42.5548 37.6379 42.6818 36.6756C42.8157 36.5147 43.08 36.3897 43.2611 36.2629C44.9924 35.0512 45.9884 33.1234 46.1951 31.3088C46.2227 31.0663 46.276 30.5811 46.2217 30.3501C43.6317 34.0692 39.0322 36.0904 34.2752 37.5463C32.0752 38.2196 29.3186 38.8254 28.0521 40.5908C27.4788 41.39 27.0949 42.4894 26.4781 43.4085C26.1763 43.858 25.5102 44.6696 25.1501 43.7529ZM16.2494 40.6139L15.8259 41.0275C15.967 41.0116 16.108 40.9954 16.2494 40.9822C16.3883 40.9791 16.5263 40.9757 16.6652 40.9822C16.55 40.8455 16.4311 40.699 16.2494 40.6139ZM35.7559 29.6637C35.615 29.9501 35.5156 30.2486 35.3806 30.5373C34.0343 33.4142 31.6108 35.2952 28.6368 37.1509C27.1355 38.0878 25.5223 39.0247 25.3354 40.7042C25.6283 41.0501 26.0949 41.2939 26.4881 41.5608C26.8295 40.7692 27.2035 40.0741 27.8872 39.4288C29.7628 37.7097 33.5385 37.0075 36.166 36.0729C36.4246 35.4316 36.5993 34.846 36.5922 34.1648C36.2347 34.5294 34.7652 35.9304 34.1685 35.9952C33.4171 36.0769 34.2355 35.2921 34.3221 35.1964C35.5615 33.8278 36.0737 31.9933 35.8938 30.3216C35.8772 30.1668 35.876 29.787 35.7559 29.6637Z" fill="#0D2E4C"/>
<path d="M36.1658 38.1217C36.4589 38.1148 36.6273 38.4443 36.3622 38.5842C36.058 38.7448 35.2546 38.9491 34.8776 39.0695C30.4903 40.4718 29.7855 42.0291 28.0171 45.2571C27.9452 45.3883 27.8917 45.4853 27.7195 45.5387C27.5564 45.5239 27.3897 45.4853 27.3439 45.3404C27.2348 44.9954 28.7326 42.5957 29.0429 42.1588C30.453 40.1738 33.4522 38.7139 36.1658 38.1217Z" fill="#0D2E4C"/>
<path d="M19.0518 38.7545C19.3688 38.7038 19.6767 38.8701 19.7408 39.1266C19.8049 39.3832 19.6011 39.6337 19.2848 39.6867C18.9665 39.7401 18.6553 39.5736 18.5908 39.3155C18.5262 39.0572 18.733 38.8056 19.0518 38.7545Z" fill="#0D2E4C"/>
</svg>
